<svg xmlns="http://www.w3.org/2000/svg" width="749.501" height="174.813" viewBox="0 0 749.501 174.813">
  <g id="Group_4" data-name="Group 4" transform="translate(-505 415)">
    <g id="logo-group" transform="translate(226.617 -744.515)">
      <g id="logo-center" transform="translate(278.383 329.515)">
        <g id="title">
          <g id="path224019" transform="translate(0 0)">
            <path id="Path_10" data-name="Path 10" d="M144.016,112.907v50.776h67.1V112.907h27.2v126.94h-27.2v-52.59h-67.1v52.59h-27.2V112.907Z" transform="translate(-116.815 -112.907)" stroke="#000" stroke-miterlimit="2" stroke-width="0"/>
          </g>
          <g id="path224021" transform="translate(129.439 25.385)">
            <path id="Path_11" data-name="Path 11" d="M119.754,180.417c0-33.73,17.228-51.683,52.227-51.683,17.953,0,28.29,4.715,34.093,13.419V130.548h25.388v99.739H206.073V218.5c-5.984,8.886-16.321,13.6-34.093,13.6C135.712,232.1,119.754,212.7,119.754,180.417Zm55.854,27.2c19.222,0,30.466-9.43,30.466-27.2,0-17.046-10.7-27.2-30.466-27.2-19.222,0-30.466,9.43-30.466,27.2C145.142,197.464,155.841,207.619,175.607,207.619Z" transform="translate(-119.754 -128.734)" stroke="#000" stroke-miterlimit="2" stroke-width="0"/>
          </g>
          <g id="path224023" transform="translate(251.45 25.386)">
            <path id="Path_12" data-name="Path 12" d="M174.616,153.216c-16.139,0-27.382,7.979-27.382,22.668v54.4H121.845V130.548h25.388v11.243c5.984-8.523,16.139-13.057,32.823-13.057,27.565,0,47.331,17.772,47.331,47.149v54.4H202v-54.4C202,161.92,191.3,153.216,174.616,153.216Z" transform="translate(-121.845 -128.734)" stroke="#000" stroke-miterlimit="2" stroke-width="0"/>
          </g>
          <g id="path224025" transform="translate(363.363 25.385)">
            <path id="Path_13" data-name="Path 13" d="M124.457,238.991H151.84c5.8,10.881,14.507,14.689,24.119,14.689,20.673,0,30.284-10.518,30.284-25.207V218.5c-5.984,8.886-16.321,13.6-34.092,13.6-36.269,0-52.227-19.4-52.227-51.683,0-33.73,17.228-51.683,52.227-51.683,17.953,0,28.289,4.715,34.092,13.419V130.547h25.388V235.183c0,23.575-23.756,42.978-55.673,42.978C151.84,278.16,129.9,266.555,124.457,238.991Zm51.32-31.372c19.222,0,30.465-9.43,30.465-27.2,0-17.046-10.7-27.2-30.465-27.2-19.223,0-30.466,9.43-30.466,27.2C145.312,197.464,156.011,207.619,175.778,207.619Z" transform="translate(-119.924 -128.734)" stroke="#000" stroke-miterlimit="2" stroke-width="0"/>
          </g>
          <g id="path224027" transform="translate(484.838 0)">
            <path id="Path_14" data-name="Path 14" d="M124.955,112.907h56.216c24.482,0,39.171,15.6,39.171,38.989,0,24.662-15.6,39.351-39.171,39.351H134.021v48.6h-9.067Zm55.31,70.18c18.678,0,31.01-11.606,31.01-31.191,0-18.5-11.606-30.829-31.01-30.829H134.021v62.02Z" transform="translate(-124.955 -112.907)" fill="#e5b63c" stroke="#e5b63c" stroke-miterlimit="2" stroke-width="0"/>
          </g>
          <g id="path224029" transform="translate(590.023 27.199)">
            <path id="Path_15" data-name="Path 15" d="M136.032,129.865H145.1v17.953c7.253-11.969,19.766-17.953,37.9-17.953h13.056v8.161H183c-26.113,0-37.9,14.689-37.9,47.693V229.6h-9.067Z" transform="translate(-136.032 -129.865)" fill="#e5b63c" stroke="#e5b63c" stroke-miterlimit="2" stroke-width="0"/>
          </g>
          <g id="path224031" transform="translate(647.041 25.386)">
            <path id="Path_16" data-name="Path 16" d="M173.945,128.734c33.368,0,51.32,19.4,51.32,51.683,0,33.73-19.223,51.683-51.32,51.683-33.185,0-51.139-19.4-51.139-51.683C122.806,146.687,141.847,128.734,173.945,128.734ZM216.2,180.417c0-28.471-13.057-42.615-42.253-42.615-28.289,0-42.071,13.056-42.071,42.615,0,28.471,13.056,42.616,42.071,42.616C202.234,223.034,216.2,209.976,216.2,180.417Z" transform="translate(-122.806 -128.734)" fill="#e5b63c" stroke="#e5b63c" stroke-miterlimit="2" stroke-width="0"/>
          </g>
        </g>
      </g>
    </g>
    <g id="s11" transform="translate(1155.159 -131.419)">
      <path id="Path_9" data-name="Path 9" d="M63.491-222.653a35.217,35.217,0,0,0-29.176,25.669c-1.121,4.049-1.121,12.8,0,16.847A35.178,35.178,0,0,0,59.55-155.227a39.431,39.431,0,0,0,16.2,0,34.9,34.9,0,0,0,23.029-19.017,31.371,31.371,0,0,0,3.109-13.051,20.462,20.462,0,0,0-.542-7.339A26.3,26.3,0,0,0,82.8-213.759a32.5,32.5,0,0,0-12.943,0C55-209.71,46.355-192.682,52.717-180.064a21.86,21.86,0,0,0,7.194,7.122A17.5,17.5,0,0,0,85.436-186.21c.325-2.458.325-3.181-.181-4.881a9.837,9.837,0,0,0-4.519-5.712c-1.446-.832-2.1-.976-4.411-.976s-2.965.145-4.411.976a9.751,9.751,0,0,0-4.483,5.6c-.651,2.241-.434,3.29.759,3.579,1.374.362,2.314-.181,3.651-2.025,1.555-2.133,3.109-2.82,5.061-2.169a4.219,4.219,0,0,1,2.675,3.8c-.036,2.675-3.579,7.014-7.014,8.532-6.544,2.892-14.317-2.241-14.317-9.436a19.08,19.08,0,0,1,8.568-15.184,18.733,18.733,0,0,1,19.053,0A18.724,18.724,0,0,1,94.4-188.452a26.517,26.517,0,0,1-8.5,19.342A25.242,25.242,0,0,1,68.263-162.1a25.307,25.307,0,0,1-16.992-6.038c-10.557-8.713-12.437-24.909-4.447-38.539a41.664,41.664,0,0,1,9.4-10.267,37.245,37.245,0,0,1,9.436-4.736,13.241,13.241,0,0,0,2.531-.94C68.516-222.906,65.552-222.942,63.491-222.653Z" transform="translate(-18.857 -18.437)" fill="#e5b63c"/>
    </g>
  </g>
</svg>
